<?xml version="1.0" encoding="utf-8" ?><svg xmlns="http://www.w3.org/2000/svg" xmlns:xlink="http://www.w3.org/1999/xlink" width="1024" height="1024" viewBox="0 0 1024 1024"><path fill="#4A251E" transform="scale(2 2)" d="M261.656 172.922C265.373 168.579 270.53 165.396 274.723 161.497C288.384 148.797 305.919 131.774 315.287 115.635C319.05 109.151 318.469 105.392 319.082 98.3225C321.109 74.9427 340.039 57.4773 363.058 54.8979C384.716 53.1081 405.073 66.2018 412.066 86.8206C415.878 98.0637 412.471 106.775 422.059 116.157C433.131 126.99 447.193 122.66 460.723 133.811C500.72 166.775 460.305 229.952 415.676 215.536C407.701 212.96 403.823 208.021 394.672 208.906C376.517 210.662 351.847 229.798 339.891 244.247L340.779 244.842C353.054 253.223 363.083 270.74 365.766 285.245C376.294 342.172 310.81 379.088 264.741 346.897C260.378 343.848 256.885 339.721 252.475 336.739L250.068 336.739C246.26 339.822 242.801 343.53 239.282 346.944L221.054 364.748C200.134 385.492 195.438 386.236 192.824 415.504C190.921 436.803 172.399 454.361 151.418 456.553C147.502 456.962 143.447 456.789 139.512 456.751C121.433 453.392 105.641 441.504 100.478 423.312C97.3719 412.369 100.055 404.655 89.7223 395.427C82.7397 389.192 77.4937 390.107 69.2799 387.795C50.0245 382.374 36.1859 363.111 35.4337 343.435C34.2151 311.557 65.1398 288.656 95.6172 297.284C103.763 299.59 107.91 302.943 117.111 302.623C130.807 302.147 140.738 293.442 150.799 285.187L163.025 275.224C166.648 272.211 170.833 269.229 174.001 265.746L174.252 265.465L174.252 254.853C169.624 250.952 164.788 247.481 160.646 243.02C124.333 203.912 155.275 139.315 209.557 141.985C235.968 143.284 246.098 155.776 261.656 172.922ZM445.527 132.87C431.756 128.062 419.97 130.288 411.257 112.38C408.354 106.413 408.481 100.618 407.294 94.3118C398.617 48.219 330.306 51.9042 325.949 98.8497C325.462 104.103 325.696 108.255 323.805 113.371C317.17 131.318 283 164.178 267.235 176.518C275.472 183.02 271.075 191.84 274.524 195.025C276.383 196.742 283.956 198.869 286.723 199.82C293.284 196.601 295.854 187.459 304.688 190.211C309.354 191.664 319.466 202.369 321.284 206.061C325.72 215.075 315.496 219.833 311.722 226.323C312.622 228.284 313.513 230.246 314.496 232.167C315.183 233.986 315.817 235.828 316.472 237.659C322.777 237.824 328.489 236.617 333.851 240.678C349.55 224.788 382.064 193.443 407.439 204.204C410.444 205.479 413.106 207.459 416.132 208.726C435.694 216.915 459.56 202.464 467.073 184.094C475.499 163.495 466.206 141.163 445.527 132.87ZM247.142 175.324L254.554 175.324C229.719 135.137 164.24 142.229 153.4 190.103C149.458 207.513 154.134 228.393 167.697 240.678C169.661 242.932 172.249 244.612 174.252 246.892C180.476 236.399 183.097 237.279 195.322 237.659C196.254 235.649 199.851 227.768 199.696 226.042C199.212 220.656 181.515 214.545 193.217 202.285C207.631 187.183 209.918 183.023 226.344 199.82C229.616 197.556 233.471 196.533 237.135 195.052C239.238 187.095 236.887 178.216 247.142 175.324ZM337.735 251.002L337.735 263.627C335.928 268.86 332.787 272.266 327.159 272.764C314.265 273.904 317.446 270.304 312.359 283.367C310.087 289.201 319.355 292.429 320.342 299.379C321.436 307.096 310.501 317.349 304.958 319.887C295.22 324.344 291.378 312.379 285.77 312.088C282.41 311.914 276.976 314.922 273.988 316.353C272.762 321.787 273.11 327.233 270.927 332.482C268.626 334.897 265.84 336.12 262.619 336.739C287.972 357.947 326.355 357.408 347.762 330.977C367.751 306.294 361.999 270.477 337.735 251.002ZM191.019 388.472C199.815 373.985 210.933 364.844 222.946 353.123L232.401 343.994C235.725 340.729 238.95 337.389 242.568 334.441C236.69 327.478 239.615 323.055 237.135 316.353C233.905 314.138 229.953 312.834 226.344 311.354L226.048 311.548C220.399 315.308 216.905 321.921 209.044 320.386C203.313 319.267 194.545 309.723 191.637 305.289C185.679 296.204 195.869 290.694 200.04 284.991C193.228 264.854 191.146 278.656 178.54 271.624C159.342 286.104 135.27 312.667 110.513 309.106C104.971 308.308 100.374 305.739 95.1314 304.095C71.8804 296.807 46.2716 311.619 42.707 335.997C40.0437 354.212 50.8312 373.55 68.2307 380.089C72.1147 381.548 76.1889 381.969 80.1831 382.983C95.6668 386.912 104.074 399.902 106.095 414.858C106.47 417.629 106.661 420.441 107.748 423.048C121.787 463.122 180.201 455.878 185.58 416.305C187.363 403.183 185.996 401.63 191.019 388.472ZM250.068 181.991C240.699 183.552 248.822 195.131 240.417 200.724C235.707 203.858 226.133 207.561 221.186 203.951C218.294 201.84 213.825 195.564 210.004 196.252C207.351 196.73 199.185 205.501 197.654 207.947C192.499 216.181 211.059 216.072 205.093 231.804C196.407 254.712 186.601 238.273 182.125 246.963C181.095 248.965 181.14 261.734 181.827 263.89C184.089 270.991 197.717 261.065 203.757 274.859C213.154 296.32 193.745 292.438 197.365 301.253C198.133 303.123 207.081 312.394 209.094 313.236C215.993 316.119 219.52 301.969 230.107 305.419C232.672 306.255 239.053 308.724 241.133 310.277C246.481 314.27 243.611 327.346 247.79 328.824C250.884 329.917 258.124 329.218 261.656 329.237C269.365 328.86 263.405 315.435 270.18 310.431C273.224 308.182 281.906 305.209 285.524 305.012C298.882 304.286 293.35 324.136 311.276 305.134C318.952 296.997 303.505 294.014 305.118 283.602C306.133 277.047 310.932 267.117 318.457 266.677C321.657 266.49 327.1 267.584 329.46 265.044C331.56 262.784 332.282 247.916 329.071 245.114C323.805 240.519 314.751 251.047 307.985 235.461C299.045 214.867 320.993 216.586 313.775 207.411C312.841 206.224 304.906 198.199 303.947 197.528C297.086 192.727 297.137 211.209 279.508 204.488C274.181 202.457 268.727 201.483 266.95 195.257C262.992 181.393 270.968 181.834 250.068 181.991Z"/><path fill="#E7CFC4" transform="scale(2 2)" d="M267.235 176.518C283 164.178 317.17 131.318 323.805 113.371C325.696 108.255 325.462 104.103 325.949 98.8497C330.306 51.9042 398.617 48.219 407.294 94.3118C408.481 100.618 408.354 106.413 411.257 112.38C419.97 130.288 431.756 128.062 445.527 132.87C445.75 146.6 443.992 161.979 434.039 172.501C431.676 175 426.511 175.744 423.292 177.376C421.382 154.815 436.274 150.663 435.985 145.999C435.858 143.94 434.147 142.572 432.11 142.971C422.55 144.846 416.972 164.719 416.176 172.922C410.458 169.95 389.275 164.538 385.554 171.494C384.807 172.891 385.463 175.412 387.07 175.946C391.728 177.492 400.178 171.265 412.548 178.367C409.142 180.144 403.951 179.987 400.16 180.704C371.002 186.218 346.509 201.376 324.968 221.544C321.335 224.945 318.129 228.773 314.496 232.167C313.513 230.246 312.622 228.284 311.722 226.323C315.496 219.833 325.72 215.075 321.284 206.061C319.466 202.369 309.354 191.664 304.688 190.211C295.854 187.459 293.284 196.601 286.723 199.82C283.956 198.869 276.383 196.742 274.524 195.025C271.075 191.84 275.472 183.02 267.235 176.518ZM388.56 99.2853C379.911 101.32 369.721 107.261 365.069 115.079C363.196 118.227 364.322 121.566 368.403 121.366C371.811 119.295 373.817 113.312 380.958 109.275C383.964 107.576 389.653 106.312 391.725 104.885C394.894 102.702 391.449 99.1639 388.56 99.2853ZM339.066 102.463C332.228 107.208 341.834 110.343 345.116 112.624C354.474 119.126 360.722 130.043 360.264 141.587C360.11 145.469 357.961 151.649 364.21 150.874C366.937 149.168 366.736 145.942 366.866 143.091C367.607 126.884 359.287 113.323 345.707 105.073C343.605 103.795 341.594 102.473 339.066 102.463Z"/><path fill="#4A251E" transform="scale(2 2)" d="M368.403 121.366C364.322 121.566 363.196 118.227 365.069 115.079C369.721 107.261 379.911 101.32 388.56 99.2853C391.449 99.1639 394.894 102.702 391.725 104.885C389.653 106.312 383.964 107.576 380.958 109.275C373.817 113.312 371.811 119.295 368.403 121.366Z"/><path fill="#4A251E" transform="scale(2 2)" d="M364.21 150.874C357.961 151.649 360.11 145.469 360.264 141.587C360.722 130.043 354.474 119.126 345.116 112.624C341.834 110.343 332.228 107.208 339.066 102.463C341.594 102.473 343.605 103.795 345.707 105.073C359.287 113.323 367.607 126.884 366.866 143.091C366.736 145.942 366.937 149.168 364.21 150.874Z"/><path fill="#BE7D68" transform="scale(2 2)" d="M445.527 132.87C466.206 141.163 475.499 163.495 467.073 184.094C459.56 202.464 435.694 216.915 416.132 208.726C413.106 207.459 410.444 205.479 407.439 204.204C382.064 193.443 349.55 224.788 333.851 240.678C328.489 236.617 322.777 237.824 316.472 237.659C315.817 235.828 315.183 233.986 314.496 232.167C318.129 228.773 321.335 224.945 324.968 221.544C346.509 201.376 371.002 186.218 400.16 180.704C403.951 179.987 409.142 180.144 412.548 178.367C424.01 183.986 426.32 196.932 429.252 198.36C430.926 199.176 433.181 198.639 433.815 196.744C435.852 190.656 424.735 180.952 423.292 177.376C426.511 175.744 431.676 175 434.039 172.501C443.992 161.979 445.75 146.6 445.527 132.87Z"/><path fill="#4A251E" transform="scale(2 2)" d="M416.176 172.922C416.972 164.719 422.55 144.846 432.11 142.971C434.147 142.572 435.858 143.94 435.985 145.999C436.274 150.663 421.382 154.815 423.292 177.376C424.735 180.952 435.852 190.656 433.815 196.744C433.181 198.639 430.926 199.176 429.252 198.36C426.32 196.932 424.01 183.986 412.548 178.367C400.178 171.265 391.728 177.492 387.07 175.946C385.463 175.412 384.807 172.891 385.554 171.494C389.275 164.538 410.458 169.95 416.176 172.922Z"/><path fill="#E0E6C3" transform="scale(2 2)" d="M254.554 175.324L247.142 175.324C236.887 178.216 239.238 187.095 237.135 195.052C233.471 196.533 229.616 197.556 226.344 199.82C209.918 183.023 207.631 187.183 193.217 202.285C181.515 214.545 199.212 220.656 199.696 226.042C199.851 227.768 196.254 235.649 195.322 237.659C183.097 237.279 180.476 236.399 174.252 246.892C172.249 244.612 169.661 242.932 167.697 240.678C154.134 228.393 149.458 207.513 153.4 190.103C164.24 142.229 229.719 135.137 254.554 175.324Z"/><path fill="#A9B859" transform="scale(2 2)" d="M261.656 329.237C258.124 329.218 250.884 329.917 247.79 328.824C243.611 327.346 246.481 314.27 241.133 310.277C239.053 308.724 232.672 306.255 230.107 305.419C219.52 301.969 215.993 316.119 209.094 313.236C207.081 312.394 198.133 303.123 197.365 301.253C193.745 292.438 213.154 296.32 203.757 274.859C197.717 261.065 184.089 270.991 181.827 263.89C181.14 261.734 181.095 248.965 182.125 246.963C186.601 238.273 196.407 254.712 205.093 231.804C211.059 216.072 192.499 216.181 197.654 207.947C199.185 205.501 207.351 196.73 210.004 196.252C213.825 195.564 218.294 201.84 221.186 203.951C226.133 207.561 235.707 203.858 240.417 200.724C248.822 195.131 240.699 183.552 250.068 181.991C270.968 181.834 262.992 181.393 266.95 195.257C268.727 201.483 274.181 202.457 279.508 204.488C297.137 211.209 297.086 192.727 303.947 197.528C304.906 198.199 312.841 206.224 313.775 207.411C320.993 216.586 299.045 214.867 307.985 235.461C314.751 251.047 323.805 240.519 329.071 245.114C332.282 247.916 331.56 262.784 329.46 265.044C327.1 267.584 321.657 266.49 318.457 266.677C310.932 267.117 306.133 277.047 305.118 283.602C303.505 294.014 318.952 296.997 311.276 305.134C293.35 324.136 298.882 304.286 285.524 305.012C281.906 305.209 273.224 308.182 270.18 310.431C263.405 315.435 269.365 328.86 261.656 329.237ZM251.413 216.868C230.119 219.292 214.814 238.507 217.214 259.804C219.615 281.101 238.813 296.427 260.112 294.05C281.445 291.669 296.8 272.434 294.396 251.105C291.992 229.775 272.74 214.441 251.413 216.868Z"/><path fill="#4A251E" transform="scale(2 2)" d="M260.112 294.05C238.813 296.427 219.615 281.101 217.214 259.804C214.814 238.507 230.119 219.292 251.413 216.868C272.74 214.441 291.992 229.775 294.396 251.105C296.8 272.434 281.445 291.669 260.112 294.05ZM253.14 223.526C235.479 224.887 222.27 240.315 223.645 257.975C225.02 275.634 240.458 288.831 258.117 287.442C275.756 286.054 288.934 270.637 287.561 252.997C286.187 235.357 270.78 222.166 253.14 223.526Z"/><path fill="#A9B859" transform="scale(2 2)" d="M258.117 287.442C240.458 288.831 225.02 275.634 223.645 257.975C222.27 240.315 235.479 224.887 253.14 223.526C270.78 222.166 286.187 235.357 287.561 252.997C288.934 270.637 275.756 286.054 258.117 287.442Z"/><path fill="#E0E6C3" transform="scale(2 2)" d="M337.735 263.627L337.735 251.002C361.999 270.477 367.751 306.294 347.762 330.977C326.355 357.408 287.972 357.947 262.619 336.739C265.84 336.12 268.626 334.897 270.927 332.482C273.11 327.233 272.762 321.787 273.988 316.353C276.976 314.922 282.41 311.914 285.77 312.088C291.378 312.379 295.22 324.344 304.958 319.887C310.501 317.349 321.436 307.096 320.342 299.379C319.355 292.429 310.087 289.201 312.359 283.367C317.446 270.304 314.265 273.904 327.159 272.764C332.787 272.266 335.928 268.86 337.735 263.627Z"/><path fill="#E7CFC4" transform="scale(2 2)" d="M191.019 388.472C186.555 390.275 179.826 399.148 175.358 402.474C169.898 397.273 160.654 390.768 152.748 390.802C149.65 390.815 148.376 392.365 149.087 395.381C155.155 399.835 162.798 398.238 170.183 407.068C152.23 422.513 138.938 431.615 112.894 424.499C111.19 424.034 109.471 423.399 107.748 423.048C106.661 420.441 106.47 417.629 106.095 414.858C104.074 399.902 95.6668 386.912 80.1831 382.983C76.1889 381.969 72.1147 381.548 68.2307 380.089C50.8312 373.55 40.0437 354.212 42.707 335.997C46.2716 311.619 71.8804 296.807 95.1314 304.095C100.374 305.739 104.971 308.308 110.513 309.106C135.27 312.667 159.342 286.104 178.54 271.624C191.146 278.656 193.228 264.854 200.04 284.991C195.869 290.694 185.679 296.204 191.637 305.289C194.545 309.723 203.313 319.267 209.044 320.386C216.905 321.921 220.399 315.308 226.048 311.548L226.344 311.354C229.953 312.834 233.905 314.138 237.135 316.353C239.615 323.055 236.69 327.478 242.568 334.441C238.95 337.389 235.725 340.729 232.401 343.994L222.946 353.123C210.933 364.844 199.815 373.985 191.019 388.472ZM80.2685 314.006C74.8329 316.923 78.9812 320.181 81.5562 323.179C86.6608 329.121 84.4051 337.583 89.9607 338.825C97.7416 335.03 86.4811 314.418 80.2685 314.006ZM125.981 332.482C109.912 342.718 102.267 335.156 98.4277 337.352C94.7951 339.429 99.1834 342.836 101.374 343.621C109.58 345.761 118.199 344.924 125.576 340.59C132.13 336.74 129.65 331.754 125.981 332.482ZM89.9607 340.983C86.1655 342.465 86.784 345.63 85.8733 349.11C84.0674 356.012 81.2846 357.582 76.6485 362.429C74.0214 365.175 74.2953 368.756 78.6736 368.834C87.1275 364.628 99.7749 342.346 89.9607 340.983ZM146.763 359.72C141.618 362.771 146.192 368.206 146.692 374.065C147.227 380.342 140.943 391.518 147.964 391.412C154.779 387.925 155.103 360.146 146.763 359.72ZM141.55 393.187C133.611 397.534 136.702 402.114 121.553 403.638C115.023 404.295 114.046 409.419 120.088 410.377C128.851 410.221 136.314 407.404 142.481 401.029C145.5 397.909 146.328 394.901 141.55 393.187Z"/><path fill="#4A251E" transform="scale(2 2)" d="M89.9607 338.825C84.4051 337.583 86.6608 329.121 81.5562 323.179C78.9812 320.181 74.8329 316.923 80.2685 314.006C86.4811 314.418 97.7416 335.03 89.9607 338.825Z"/><path fill="#4A251E" transform="scale(2 2)" d="M101.374 343.621C99.1834 342.836 94.7951 339.429 98.4277 337.352C102.267 335.156 109.912 342.718 125.981 332.482C129.65 331.754 132.13 336.74 125.576 340.59C118.199 344.924 109.58 345.761 101.374 343.621Z"/><path fill="#4A251E" transform="scale(2 2)" d="M78.6736 368.834C74.2953 368.756 74.0214 365.175 76.6485 362.429C81.2846 357.582 84.0674 356.012 85.8733 349.11C86.784 345.63 86.1655 342.465 89.9607 340.983C99.7749 342.346 87.1275 364.628 78.6736 368.834Z"/><path fill="#4A251E" transform="scale(2 2)" d="M147.964 391.412C140.943 391.518 147.227 380.342 146.692 374.065C146.192 368.206 141.618 362.771 146.763 359.72C155.103 360.146 154.779 387.925 147.964 391.412Z"/><path fill="#BE7D68" transform="scale(2 2)" d="M175.358 402.474C179.826 399.148 186.555 390.275 191.019 388.472C185.996 401.63 187.363 403.183 185.58 416.305C180.201 455.878 121.787 463.122 107.748 423.048C109.471 423.399 111.19 424.034 112.894 424.499C138.938 431.615 152.23 422.513 170.183 407.068C173.452 411.497 179.381 407.515 175.358 402.474Z"/><path fill="#4A251E" transform="scale(2 2)" d="M170.183 407.068C162.798 398.238 155.155 399.835 149.087 395.381C148.376 392.365 149.65 390.815 152.748 390.802C160.654 390.768 169.898 397.273 175.358 402.474C179.381 407.515 173.452 411.497 170.183 407.068Z"/><path fill="#4A251E" transform="scale(2 2)" d="M120.088 410.377C114.046 409.419 115.023 404.295 121.553 403.638C136.702 402.114 133.611 397.534 141.55 393.187C146.328 394.901 145.5 397.909 142.481 401.029C136.314 407.404 128.851 410.221 120.088 410.377Z"/></svg>