<?xml version="1.0" encoding="UTF-8"?>
<svg xmlns="http://www.w3.org/2000/svg" xmlns:xlink="http://www.w3.org/1999/xlink" width="32px" height="32px" viewBox="0 0 32 32" version="1.1">
<g id="surface1">
<path style=" stroke:none;fill-rule:nonzero;fill:rgb(29.019609%,14.509805%,11.764706%);fill-opacity:1;" d="M 16.351562 10.808594 C 16.585938 10.535156 16.90625 10.335938 17.171875 10.09375 C 18.023438 9.300781 19.121094 8.234375 19.707031 7.226562 C 19.941406 6.820312 19.90625 6.585938 19.941406 6.144531 C 20.070312 4.683594 21.253906 3.59375 22.691406 3.429688 C 24.042969 3.320312 25.316406 4.136719 25.753906 5.425781 C 25.992188 6.128906 25.78125 6.671875 26.378906 7.261719 C 27.070312 7.9375 27.949219 7.667969 28.796875 8.363281 C 31.296875 10.421875 28.769531 14.371094 25.980469 13.472656 C 25.480469 13.308594 25.238281 13 24.667969 13.054688 C 23.53125 13.167969 21.992188 14.363281 21.242188 15.265625 L 21.296875 15.300781 C 22.066406 15.828125 22.691406 16.921875 22.859375 17.828125 C 23.519531 21.386719 19.425781 23.691406 16.546875 21.679688 C 16.273438 21.492188 16.054688 21.234375 15.78125 21.046875 L 15.628906 21.046875 C 15.390625 21.238281 15.175781 21.46875 14.957031 21.683594 L 13.816406 22.796875 C 12.507812 24.09375 12.214844 24.140625 12.050781 25.96875 C 11.933594 27.300781 10.773438 28.398438 9.464844 28.535156 C 9.21875 28.558594 8.964844 28.550781 8.71875 28.546875 C 7.589844 28.335938 6.601562 27.59375 6.28125 26.457031 C 6.085938 25.773438 6.253906 25.289062 5.609375 24.714844 C 5.171875 24.324219 4.84375 24.382812 4.328125 24.238281 C 3.125 23.898438 2.261719 22.695312 2.214844 21.464844 C 2.136719 19.472656 4.070312 18.039062 5.976562 18.582031 C 6.484375 18.722656 6.746094 18.933594 7.320312 18.914062 C 8.175781 18.882812 8.796875 18.339844 9.425781 17.824219 L 10.1875 17.203125 C 10.414062 17.011719 10.675781 16.828125 10.875 16.609375 L 10.890625 16.589844 L 10.890625 15.929688 C 10.601562 15.683594 10.300781 15.46875 10.039062 15.1875 C 7.769531 12.746094 9.703125 8.707031 13.097656 8.875 C 14.746094 8.957031 15.382812 9.734375 16.351562 10.808594 Z M 27.84375 8.304688 C 26.984375 8.003906 26.25 8.144531 25.703125 7.023438 C 25.523438 6.652344 25.53125 6.289062 25.457031 5.894531 C 24.914062 3.015625 20.644531 3.242188 20.371094 6.179688 C 20.339844 6.507812 20.355469 6.765625 20.238281 7.085938 C 19.824219 8.207031 17.6875 10.261719 16.703125 11.03125 C 17.21875 11.4375 16.941406 11.988281 17.15625 12.1875 C 17.273438 12.296875 17.746094 12.429688 17.921875 12.488281 C 18.332031 12.289062 18.492188 11.714844 19.042969 11.886719 C 19.335938 11.980469 19.964844 12.648438 20.082031 12.878906 C 20.359375 13.441406 19.71875 13.738281 19.484375 14.144531 C 19.539062 14.269531 19.59375 14.390625 19.65625 14.511719 C 19.699219 14.625 19.738281 14.738281 19.78125 14.855469 C 20.171875 14.863281 20.53125 14.789062 20.867188 15.042969 C 21.847656 14.050781 23.878906 12.089844 25.464844 12.761719 C 25.652344 12.84375 25.820312 12.964844 26.007812 13.046875 C 27.230469 13.558594 28.722656 12.652344 29.191406 11.507812 C 29.71875 10.21875 29.136719 8.824219 27.84375 8.304688 Z M 15.445312 10.957031 L 15.910156 10.957031 C 14.359375 8.445312 10.265625 8.890625 9.585938 11.882812 C 9.339844 12.96875 9.632812 14.273438 10.480469 15.042969 C 10.605469 15.183594 10.765625 15.289062 10.890625 15.429688 C 11.28125 14.773438 11.445312 14.828125 12.207031 14.855469 C 12.265625 14.726562 12.492188 14.234375 12.480469 14.128906 C 12.449219 13.789062 11.34375 13.410156 12.074219 12.644531 C 12.976562 11.699219 13.121094 11.4375 14.148438 12.488281 C 14.351562 12.347656 14.59375 12.285156 14.820312 12.191406 C 14.953125 11.695312 14.804688 11.136719 15.445312 10.957031 Z M 21.109375 15.6875 L 21.109375 16.476562 C 20.996094 16.804688 20.800781 17.015625 20.449219 17.046875 C 19.640625 17.117188 19.839844 16.894531 19.523438 17.710938 C 19.378906 18.074219 19.960938 18.277344 20.019531 18.710938 C 20.089844 19.195312 19.40625 19.835938 19.058594 19.992188 C 18.453125 20.273438 18.210938 19.523438 17.859375 19.503906 C 17.652344 19.496094 17.3125 19.683594 17.125 19.773438 C 17.046875 20.113281 17.070312 20.453125 16.933594 20.78125 C 16.789062 20.929688 16.613281 21.007812 16.414062 21.046875 C 18 22.371094 20.398438 22.339844 21.734375 20.6875 C 22.984375 19.144531 22.625 16.90625 21.109375 15.6875 Z M 11.9375 24.28125 C 12.488281 23.375 13.183594 22.804688 13.933594 22.070312 L 14.523438 21.5 C 14.734375 21.296875 14.933594 21.085938 15.160156 20.902344 C 14.792969 20.46875 14.976562 20.191406 14.820312 19.773438 C 14.617188 19.632812 14.371094 19.550781 14.148438 19.460938 L 14.128906 19.472656 C 13.773438 19.707031 13.554688 20.121094 13.066406 20.023438 C 12.707031 19.953125 12.160156 19.359375 11.976562 19.082031 C 11.605469 18.511719 12.242188 18.167969 12.503906 17.8125 C 12.078125 16.554688 11.945312 17.414062 11.160156 16.976562 C 9.957031 17.882812 8.453125 19.542969 6.90625 19.320312 C 6.5625 19.269531 6.273438 19.109375 5.945312 19.007812 C 4.492188 18.550781 2.890625 19.476562 2.667969 21 C 2.503906 22.136719 3.175781 23.347656 4.265625 23.753906 C 4.507812 23.847656 4.761719 23.875 5.011719 23.9375 C 5.980469 24.183594 6.503906 24.992188 6.632812 25.929688 C 6.65625 26.101562 6.667969 26.277344 6.734375 26.441406 C 7.613281 28.945312 11.261719 28.492188 11.597656 26.019531 C 11.710938 25.199219 11.625 25.101562 11.9375 24.28125 Z M 15.628906 11.375 C 15.042969 11.472656 15.550781 12.195312 15.027344 12.546875 C 14.730469 12.742188 14.132812 12.972656 13.824219 12.746094 C 13.644531 12.613281 13.363281 12.222656 13.125 12.265625 C 12.960938 12.296875 12.449219 12.84375 12.351562 12.996094 C 12.03125 13.511719 13.191406 13.503906 12.816406 14.488281 C 12.277344 15.917969 11.664062 14.890625 11.382812 15.433594 C 11.320312 15.558594 11.320312 16.359375 11.363281 16.492188 C 11.503906 16.9375 12.355469 16.316406 12.734375 17.179688 C 13.320312 18.519531 12.109375 18.277344 12.335938 18.828125 C 12.382812 18.945312 12.941406 19.523438 13.070312 19.578125 C 13.5 19.757812 13.71875 18.875 14.382812 19.089844 C 14.542969 19.140625 14.941406 19.296875 15.070312 19.390625 C 15.40625 19.640625 15.226562 20.460938 15.488281 20.550781 C 15.679688 20.621094 16.132812 20.574219 16.351562 20.578125 C 16.835938 20.554688 16.460938 19.714844 16.886719 19.402344 C 17.078125 19.261719 17.617188 19.074219 17.84375 19.0625 C 18.679688 19.019531 18.335938 20.257812 19.453125 19.070312 C 19.933594 18.5625 18.96875 18.375 19.070312 17.726562 C 19.132812 17.316406 19.433594 16.695312 19.902344 16.667969 C 20.105469 16.65625 20.445312 16.722656 20.589844 16.566406 C 20.722656 16.425781 20.769531 15.496094 20.566406 15.320312 C 20.238281 15.03125 19.671875 15.691406 19.25 14.714844 C 18.691406 13.429688 20.0625 13.535156 19.609375 12.964844 C 19.550781 12.890625 19.054688 12.386719 18.996094 12.34375 C 18.566406 12.046875 18.570312 13.199219 17.46875 12.78125 C 17.136719 12.652344 16.796875 12.59375 16.683594 12.203125 C 16.4375 11.335938 16.933594 11.363281 15.628906 11.375 Z M 15.628906 11.375 "/>
<path style=" stroke:none;fill-rule:nonzero;fill:rgb(90.588236%,81.176472%,76.862746%);fill-opacity:1;" d="M 16.703125 11.03125 C 17.6875 10.261719 19.824219 8.207031 20.238281 7.085938 C 20.355469 6.765625 20.339844 6.507812 20.371094 6.179688 C 20.644531 3.242188 24.914062 3.015625 25.457031 5.894531 C 25.53125 6.289062 25.523438 6.652344 25.703125 7.023438 C 26.25 8.144531 26.984375 8.003906 27.84375 8.304688 C 27.859375 9.164062 27.75 10.125 27.128906 10.78125 C 26.980469 10.9375 26.65625 10.984375 26.457031 11.085938 C 26.335938 9.675781 27.265625 9.417969 27.25 9.125 C 27.242188 8.996094 27.132812 8.910156 27.007812 8.9375 C 26.410156 9.054688 26.0625 10.296875 26.011719 10.808594 C 25.652344 10.621094 24.328125 10.285156 24.097656 10.71875 C 24.050781 10.804688 24.089844 10.964844 24.191406 10.996094 C 24.484375 11.09375 25.011719 10.703125 25.785156 11.148438 C 25.570312 11.257812 25.246094 11.25 25.011719 11.292969 C 23.1875 11.636719 21.65625 12.585938 20.308594 13.847656 C 20.082031 14.058594 19.882812 14.296875 19.65625 14.511719 C 19.59375 14.390625 19.539062 14.269531 19.484375 14.144531 C 19.71875 13.738281 20.359375 13.441406 20.082031 12.878906 C 19.964844 12.648438 19.335938 11.980469 19.042969 11.886719 C 18.492188 11.714844 18.332031 12.289062 17.921875 12.488281 C 17.746094 12.429688 17.273438 12.296875 17.15625 12.1875 C 16.941406 11.988281 17.21875 11.4375 16.703125 11.03125 Z M 24.285156 6.207031 C 23.746094 6.332031 23.109375 6.703125 22.816406 7.191406 C 22.699219 7.390625 22.769531 7.597656 23.023438 7.585938 C 23.238281 7.457031 23.363281 7.082031 23.808594 6.828125 C 23.996094 6.722656 24.351562 6.644531 24.484375 6.554688 C 24.679688 6.417969 24.464844 6.199219 24.285156 6.207031 Z M 21.191406 6.402344 C 20.765625 6.699219 21.363281 6.894531 21.570312 7.039062 C 22.15625 7.445312 22.546875 8.128906 22.515625 8.847656 C 22.507812 9.09375 22.371094 9.476562 22.761719 9.429688 C 22.933594 9.324219 22.921875 9.121094 22.929688 8.941406 C 22.976562 7.929688 22.457031 7.082031 21.605469 6.566406 C 21.476562 6.488281 21.351562 6.40625 21.191406 6.402344 Z M 21.191406 6.402344 "/>
<path style=" stroke:none;fill-rule:nonzero;fill:rgb(29.019609%,14.509805%,11.764706%);fill-opacity:1;" d="M 23.023438 7.585938 C 22.769531 7.597656 22.699219 7.390625 22.816406 7.191406 C 23.109375 6.703125 23.746094 6.332031 24.285156 6.207031 C 24.464844 6.199219 24.679688 6.417969 24.484375 6.554688 C 24.351562 6.644531 23.996094 6.722656 23.808594 6.828125 C 23.363281 7.082031 23.238281 7.457031 23.023438 7.585938 Z M 23.023438 7.585938 "/>
<path style=" stroke:none;fill-rule:nonzero;fill:rgb(29.019609%,14.509805%,11.764706%);fill-opacity:1;" d="M 22.761719 9.429688 C 22.371094 9.476562 22.507812 9.09375 22.515625 8.847656 C 22.546875 8.128906 22.15625 7.445312 21.570312 7.039062 C 21.363281 6.894531 20.765625 6.699219 21.191406 6.402344 C 21.351562 6.40625 21.476562 6.488281 21.605469 6.566406 C 22.457031 7.082031 22.976562 7.929688 22.929688 8.941406 C 22.921875 9.121094 22.933594 9.324219 22.761719 9.429688 Z M 22.761719 9.429688 "/>
<path style=" stroke:none;fill-rule:nonzero;fill:rgb(74.509805%,49.019608%,40.784314%);fill-opacity:1;" d="M 27.84375 8.304688 C 29.136719 8.824219 29.71875 10.21875 29.191406 11.507812 C 28.722656 12.652344 27.230469 13.558594 26.007812 13.046875 C 25.820312 12.964844 25.652344 12.84375 25.464844 12.761719 C 23.878906 12.089844 21.847656 14.050781 20.867188 15.042969 C 20.53125 14.789062 20.171875 14.863281 19.78125 14.855469 C 19.738281 14.738281 19.699219 14.625 19.65625 14.511719 C 19.882812 14.296875 20.082031 14.058594 20.308594 13.847656 C 21.65625 12.585938 23.1875 11.636719 25.011719 11.292969 C 25.246094 11.25 25.570312 11.257812 25.785156 11.148438 C 26.5 11.5 26.644531 12.308594 26.828125 12.398438 C 26.933594 12.449219 27.074219 12.414062 27.113281 12.296875 C 27.242188 11.914062 26.546875 11.308594 26.457031 11.085938 C 26.65625 10.984375 26.980469 10.9375 27.128906 10.78125 C 27.75 10.125 27.859375 9.164062 27.84375 8.304688 Z M 27.84375 8.304688 "/>
<path style=" stroke:none;fill-rule:nonzero;fill:rgb(29.019609%,14.509805%,11.764706%);fill-opacity:1;" d="M 26.011719 10.808594 C 26.0625 10.296875 26.410156 9.054688 27.007812 8.9375 C 27.132812 8.910156 27.242188 8.996094 27.25 9.125 C 27.265625 9.417969 26.335938 9.675781 26.457031 11.085938 C 26.546875 11.308594 27.242188 11.914062 27.113281 12.296875 C 27.074219 12.414062 26.933594 12.449219 26.828125 12.398438 C 26.644531 12.308594 26.5 11.5 25.785156 11.148438 C 25.011719 10.703125 24.484375 11.09375 24.191406 10.996094 C 24.089844 10.964844 24.050781 10.804688 24.097656 10.71875 C 24.328125 10.285156 25.652344 10.621094 26.011719 10.808594 Z M 26.011719 10.808594 "/>
<path style=" stroke:none;fill-rule:nonzero;fill:rgb(87.843138%,90.196079%,76.47059%);fill-opacity:1;" d="M 15.910156 10.957031 L 15.445312 10.957031 C 14.804688 11.136719 14.953125 11.695312 14.820312 12.191406 C 14.59375 12.285156 14.351562 12.347656 14.148438 12.488281 C 13.121094 11.4375 12.976562 11.699219 12.074219 12.644531 C 11.34375 13.410156 12.449219 13.789062 12.480469 14.128906 C 12.492188 14.234375 12.265625 14.726562 12.207031 14.855469 C 11.445312 14.828125 11.28125 14.773438 10.890625 15.429688 C 10.765625 15.289062 10.605469 15.183594 10.480469 15.042969 C 9.632812 14.273438 9.339844 12.96875 9.585938 11.882812 C 10.265625 8.890625 14.359375 8.445312 15.910156 10.957031 Z M 15.910156 10.957031 "/>
<path style=" stroke:none;fill-rule:nonzero;fill:rgb(66.274512%,72.156864%,34.901962%);fill-opacity:1;" d="M 16.351562 20.578125 C 16.132812 20.574219 15.679688 20.621094 15.488281 20.550781 C 15.226562 20.460938 15.40625 19.640625 15.070312 19.390625 C 14.941406 19.296875 14.542969 19.140625 14.382812 19.089844 C 13.71875 18.875 13.5 19.757812 13.070312 19.578125 C 12.941406 19.523438 12.382812 18.945312 12.335938 18.828125 C 12.109375 18.277344 13.320312 18.519531 12.734375 17.179688 C 12.355469 16.316406 11.503906 16.9375 11.363281 16.492188 C 11.320312 16.359375 11.320312 15.558594 11.382812 15.433594 C 11.664062 14.890625 12.277344 15.917969 12.816406 14.488281 C 13.191406 13.503906 12.03125 13.511719 12.351562 12.996094 C 12.449219 12.84375 12.960938 12.296875 13.125 12.265625 C 13.363281 12.222656 13.644531 12.613281 13.824219 12.746094 C 14.132812 12.972656 14.730469 12.742188 15.027344 12.546875 C 15.550781 12.195312 15.042969 11.472656 15.628906 11.375 C 16.933594 11.363281 16.4375 11.335938 16.683594 12.203125 C 16.796875 12.59375 17.136719 12.652344 17.46875 12.78125 C 18.570312 13.199219 18.566406 12.046875 18.996094 12.34375 C 19.054688 12.386719 19.550781 12.890625 19.609375 12.964844 C 20.0625 13.535156 18.691406 13.429688 19.25 14.714844 C 19.671875 15.691406 20.238281 15.03125 20.566406 15.320312 C 20.769531 15.496094 20.722656 16.425781 20.589844 16.566406 C 20.445312 16.722656 20.105469 16.65625 19.902344 16.667969 C 19.433594 16.695312 19.132812 17.316406 19.070312 17.726562 C 18.96875 18.375 19.933594 18.5625 19.453125 19.070312 C 18.335938 20.257812 18.679688 19.019531 17.84375 19.0625 C 17.617188 19.074219 17.078125 19.261719 16.886719 19.402344 C 16.460938 19.714844 16.835938 20.554688 16.351562 20.578125 Z M 15.714844 13.554688 C 14.382812 13.707031 13.425781 14.90625 13.574219 16.238281 C 13.726562 17.570312 14.925781 18.527344 16.257812 18.378906 C 17.589844 18.230469 18.550781 17.027344 18.398438 15.695312 C 18.25 14.359375 17.046875 13.402344 15.714844 13.554688 Z M 15.714844 13.554688 "/>
<path style=" stroke:none;fill-rule:nonzero;fill:rgb(29.019609%,14.509805%,11.764706%);fill-opacity:1;" d="M 16.257812 18.378906 C 14.925781 18.527344 13.726562 17.570312 13.574219 16.238281 C 13.425781 14.90625 14.382812 13.707031 15.714844 13.554688 C 17.046875 13.402344 18.25 14.359375 18.398438 15.695312 C 18.550781 17.027344 17.589844 18.230469 16.257812 18.378906 Z M 15.820312 13.96875 C 14.71875 14.054688 13.890625 15.019531 13.976562 16.125 C 14.0625 17.226562 15.027344 18.050781 16.132812 17.964844 C 17.234375 17.878906 18.058594 16.914062 17.972656 15.8125 C 17.886719 14.710938 16.921875 13.886719 15.820312 13.96875 Z M 15.820312 13.96875 "/>
<path style=" stroke:none;fill-rule:nonzero;fill:rgb(66.274512%,72.156864%,34.901962%);fill-opacity:1;" d="M 16.132812 17.964844 C 15.027344 18.050781 14.0625 17.226562 13.976562 16.125 C 13.890625 15.019531 14.71875 14.054688 15.820312 13.96875 C 16.921875 13.886719 17.886719 14.710938 17.972656 15.8125 C 18.058594 16.914062 17.234375 17.878906 16.132812 17.964844 Z M 16.132812 17.964844 "/>
<path style=" stroke:none;fill-rule:nonzero;fill:rgb(87.843138%,90.196079%,76.47059%);fill-opacity:1;" d="M 21.109375 16.476562 L 21.109375 15.6875 C 22.625 16.90625 22.984375 19.144531 21.734375 20.6875 C 20.398438 22.339844 18 22.371094 16.414062 21.046875 C 16.613281 21.007812 16.789062 20.929688 16.933594 20.78125 C 17.070312 20.453125 17.046875 20.113281 17.125 19.773438 C 17.3125 19.683594 17.652344 19.496094 17.859375 19.503906 C 18.210938 19.523438 18.453125 20.273438 19.058594 19.992188 C 19.40625 19.835938 20.089844 19.195312 20.019531 18.710938 C 19.960938 18.277344 19.378906 18.074219 19.523438 17.710938 C 19.839844 16.894531 19.640625 17.117188 20.449219 17.046875 C 20.800781 17.015625 20.996094 16.804688 21.109375 16.476562 Z M 21.109375 16.476562 "/>
<path style=" stroke:none;fill-rule:nonzero;fill:rgb(90.588236%,81.176472%,76.862746%);fill-opacity:1;" d="M 11.9375 24.28125 C 11.660156 24.390625 11.238281 24.945312 10.960938 25.15625 C 10.617188 24.828125 10.039062 24.421875 9.546875 24.425781 C 9.351562 24.425781 9.273438 24.523438 9.316406 24.710938 C 9.695312 24.988281 10.175781 24.890625 10.636719 25.441406 C 9.515625 26.40625 8.683594 26.976562 7.054688 26.53125 C 6.949219 26.503906 6.84375 26.460938 6.734375 26.441406 C 6.667969 26.277344 6.65625 26.101562 6.632812 25.929688 C 6.503906 24.992188 5.980469 24.183594 5.011719 23.9375 C 4.761719 23.875 4.507812 23.847656 4.265625 23.753906 C 3.175781 23.347656 2.503906 22.136719 2.667969 21 C 2.890625 19.476562 4.492188 18.550781 5.945312 19.007812 C 6.273438 19.109375 6.5625 19.269531 6.90625 19.320312 C 8.453125 19.542969 9.957031 17.882812 11.160156 16.976562 C 11.945312 17.414062 12.078125 16.554688 12.503906 17.8125 C 12.242188 18.167969 11.605469 18.511719 11.976562 19.082031 C 12.160156 19.359375 12.707031 19.953125 13.066406 20.023438 C 13.554688 20.121094 13.773438 19.707031 14.128906 19.472656 L 14.148438 19.460938 C 14.371094 19.550781 14.617188 19.632812 14.820312 19.773438 C 14.976562 20.191406 14.792969 20.46875 15.160156 20.902344 C 14.933594 21.085938 14.734375 21.296875 14.523438 21.5 L 13.933594 22.070312 C 13.183594 22.804688 12.488281 23.375 11.9375 24.28125 Z M 5.015625 19.625 C 4.675781 19.808594 4.9375 20.011719 5.097656 20.199219 C 5.417969 20.570312 5.273438 21.097656 5.621094 21.175781 C 6.109375 20.9375 5.40625 19.652344 5.015625 19.625 Z M 7.875 20.78125 C 6.871094 21.417969 6.390625 20.945312 6.152344 21.085938 C 5.925781 21.214844 6.199219 21.425781 6.335938 21.476562 C 6.847656 21.609375 7.386719 21.558594 7.847656 21.285156 C 8.257812 21.046875 8.101562 20.734375 7.875 20.78125 Z M 5.621094 21.3125 C 5.386719 21.402344 5.425781 21.601562 5.367188 21.820312 C 5.253906 22.25 5.082031 22.347656 4.789062 22.652344 C 4.625 22.824219 4.644531 23.046875 4.917969 23.050781 C 5.445312 22.789062 6.234375 21.398438 5.621094 21.3125 Z M 9.171875 22.484375 C 8.851562 22.671875 9.136719 23.011719 9.167969 23.378906 C 9.203125 23.769531 8.808594 24.46875 9.246094 24.464844 C 9.671875 24.246094 9.695312 22.507812 9.171875 22.484375 Z M 8.847656 24.574219 C 8.351562 24.847656 8.542969 25.132812 7.597656 25.226562 C 7.1875 25.269531 7.128906 25.589844 7.503906 25.648438 C 8.054688 25.640625 8.519531 25.460938 8.90625 25.0625 C 9.09375 24.871094 9.144531 24.679688 8.847656 24.574219 Z M 8.847656 24.574219 "/>
<path style=" stroke:none;fill-rule:nonzero;fill:rgb(29.019609%,14.509805%,11.764706%);fill-opacity:1;" d="M 5.621094 21.175781 C 5.273438 21.097656 5.417969 20.570312 5.097656 20.199219 C 4.9375 20.011719 4.675781 19.808594 5.015625 19.625 C 5.40625 19.652344 6.109375 20.9375 5.621094 21.175781 Z M 5.621094 21.175781 "/>
<path style=" stroke:none;fill-rule:nonzero;fill:rgb(29.019609%,14.509805%,11.764706%);fill-opacity:1;" d="M 6.335938 21.476562 C 6.199219 21.425781 5.925781 21.214844 6.152344 21.085938 C 6.390625 20.945312 6.871094 21.417969 7.875 20.78125 C 8.101562 20.734375 8.257812 21.046875 7.847656 21.285156 C 7.386719 21.558594 6.847656 21.609375 6.335938 21.476562 Z M 6.335938 21.476562 "/>
<path style=" stroke:none;fill-rule:nonzero;fill:rgb(29.019609%,14.509805%,11.764706%);fill-opacity:1;" d="M 4.917969 23.050781 C 4.644531 23.046875 4.625 22.824219 4.789062 22.652344 C 5.082031 22.347656 5.253906 22.25 5.367188 21.820312 C 5.425781 21.601562 5.386719 21.402344 5.621094 21.3125 C 6.234375 21.398438 5.445312 22.789062 4.917969 23.050781 Z M 4.917969 23.050781 "/>
<path style=" stroke:none;fill-rule:nonzero;fill:rgb(29.019609%,14.509805%,11.764706%);fill-opacity:1;" d="M 9.246094 24.464844 C 8.808594 24.46875 9.203125 23.769531 9.167969 23.378906 C 9.136719 23.011719 8.851562 22.671875 9.171875 22.484375 C 9.695312 22.507812 9.671875 24.246094 9.246094 24.464844 Z M 9.246094 24.464844 "/>
<path style=" stroke:none;fill-rule:nonzero;fill:rgb(74.509805%,49.019608%,40.784314%);fill-opacity:1;" d="M 10.960938 25.15625 C 11.238281 24.945312 11.660156 24.390625 11.9375 24.28125 C 11.625 25.101562 11.710938 25.199219 11.597656 26.019531 C 11.261719 28.492188 7.613281 28.945312 6.734375 26.441406 C 6.84375 26.460938 6.949219 26.503906 7.054688 26.53125 C 8.683594 26.976562 9.515625 26.40625 10.636719 25.441406 C 10.839844 25.71875 11.210938 25.46875 10.960938 25.15625 Z M 10.960938 25.15625 "/>
<path style=" stroke:none;fill-rule:nonzero;fill:rgb(29.019609%,14.509805%,11.764706%);fill-opacity:1;" d="M 10.636719 25.441406 C 10.175781 24.890625 9.695312 24.988281 9.316406 24.710938 C 9.273438 24.523438 9.351562 24.425781 9.546875 24.425781 C 10.039062 24.421875 10.617188 24.828125 10.960938 25.15625 C 11.210938 25.46875 10.839844 25.71875 10.636719 25.441406 Z M 10.636719 25.441406 "/>
<path style=" stroke:none;fill-rule:nonzero;fill:rgb(29.019609%,14.509805%,11.764706%);fill-opacity:1;" d="M 7.503906 25.648438 C 7.128906 25.589844 7.1875 25.269531 7.597656 25.226562 C 8.542969 25.132812 8.351562 24.847656 8.847656 24.574219 C 9.144531 24.679688 9.09375 24.871094 8.90625 25.0625 C 8.519531 25.460938 8.054688 25.640625 7.503906 25.648438 Z M 7.503906 25.648438 "/>
</g>
</svg>
